<svg width="28" height="27" viewBox="0 0 28 27" fill="none" xmlns="http://www.w3.org/2000/svg">
<path d="M13.0286 0.315805C13.6093 -0.105268 14.3907 -0.105268 14.9714 0.315805L28 9.73499L26.0613 12.481L23.6933 10.7684L22.5259 19.0403C22.2914 20.7031 20.884 21.9382 19.2239 21.9382H15.6677V27H12.3323V21.9382H8.77606C7.11598 21.9382 5.70858 20.7031 5.47409 19.0403L4.30673 10.7684L1.93866 12.481L0 9.73499L13.0286 0.315805ZM14 3.76627L7.36272 8.56234L8.77606 18.5636H19.2239L20.6373 8.56234L14 3.76627ZM14 11.8146C14.921 11.8146 15.6677 12.57 15.6677 13.5018C15.6677 14.4337 14.921 15.1891 14 15.1891C13.079 15.1891 12.3323 14.4337 12.3323 13.5018C12.3323 12.57 13.079 11.8146 14 11.8146Z" fill="black"/>
</svg>
