<svg width="38" height="27" viewBox="0 0 38 27" fill="none" xmlns="http://www.w3.org/2000/svg">
<path fill-rule="evenodd" clip-rule="evenodd" d="M19 0L19.4098 0.00134277L19.8175 0.00534058L20.6258 0.0213928L20.8264 0.0270691L21.0264 0.0334473L21.8198 0.0655518L22.0164 0.0752563L22.2124 0.0856323L22.9893 0.13382L23.3734 0.161957L23.7544 0.192749L24.507 0.262421L25.2465 0.342834L25.4292 0.364624L25.611 0.387085L26.3295 0.483643C26.6456 0.528949 26.9572 0.57746 27.2642 0.62915L27.7212 0.709076L28.3932 0.837952L29.0483 0.977631C34.4357 2.18658 38 4.52049 38 8C38 8.33553 37.9633 8.66813 37.8914 8.99417L37.831 9.2374L36.99 15.278L36.9822 15.4002C36.7044 18.4858 33.2062 20.3904 27.9713 21.3174L27.6197 21.3777L26.9171 21.4875L26.5587 21.5383L26.1958 21.5864L25.4566 21.6744L25.2691 21.6947L25.0806 21.7144L24.316 21.7863L24.1223 21.8026L23.9276 21.8183L23.1392 21.8743L22.7394 21.8984L22.3359 21.92L21.5183 21.9552L21.1044 21.969L21 21.972V27H17V21.971L16.884 21.9687L16.06 21.9384L15.8561 21.9292L15.6531 21.9194L14.8501 21.8737L14.062 21.8175L13.6738 21.7854L12.9095 21.7134L12.5336 21.6734L11.7948 21.5852L11.4321 21.5371L11.0739 21.4863L10.3715 21.3764C5.06272 20.492 1.4579 18.6348 1.04057 15.6016L1.01749 15.3977L1.009 15.271L0.112 9.01099L0.0635071 8.76181L0.0283318 8.50964L0.0071106 8.25558L0 8C0 4.59453 3.41421 2.28643 8.61029 1.05634L8.95167 0.977631L9.6068 0.837952L9.77324 0.804718L9.94072 0.772156L10.6208 0.648682C10.9267 0.596193 11.2372 0.546896 11.5522 0.500793L12.0279 0.434021L12.7535 0.342834L13.493 0.262421L14.2456 0.192749L14.6266 0.161957L15.0107 0.13382L15.7876 0.0856323L15.9836 0.0752563L16.1802 0.0655518L16.9736 0.0334473L17.1736 0.0270691L17.3742 0.0213928L18.1825 0.00534058C18.4535 0.00177458 18.7261 0 19 0ZM19 3L18.5934 3.00159L18.1892 3.00632L17.7877 3.01413L16.993 3.03897L16.4047 3.06543L15.8235 3.09854L15.0604 3.15271L14.8718 3.168L14.6841 3.18402L13.9428 3.25491L13.2172 3.33655L12.5083 3.42868L11.817 3.53098L11.6471 3.55811L11.4783 3.58582L10.8154 3.70282L10.6527 3.73352L10.4914 3.76483L9.85886 3.89584L9.55061 3.96472L9.24786 4.0358L8.65931 4.18442L8.5158 4.2229L8.37376 4.26187L7.82071 4.42294L7.29251 4.59192C4.62936 5.48494 3 6.68301 3 8C3 8.09992 3.00938 8.19917 3.02788 8.29764L3.06243 8.44476L4 14.9959L4.00505 15.1049C4.09209 16.0066 5.29818 16.8341 7.26675 17.4923L7.52781 17.5771L8.01273 17.7231L8.52344 17.8627L9.05894 17.9955L9.47626 18.0905L9.90654 18.1814L10.4997 18.2962L11.1143 18.4033L11.7491 18.5025L12.4034 18.5934L12.5699 18.6149L12.7375 18.6358L13.4189 18.714L14.1172 18.7833L14.2943 18.7992L14.4724 18.8146L15.1943 18.8701L15.9305 18.9162L16.6802 18.9525L17.4423 18.9787L18.2159 18.9946L19 19L19.784 18.9946L20.5574 18.9787L21.3195 18.9525L22.069 18.9162L22.8052 18.8701L22.987 18.8571L23.1679 18.8436L23.8821 18.7834L24.5803 18.714L24.9232 18.676L25.2617 18.6359L25.9252 18.5491L26.5698 18.454L26.7279 18.429L26.8847 18.4034L27.4992 18.2963L28.0923 18.1816L28.3806 18.1214L28.6631 18.0594L29.2106 17.9301L29.3438 17.8967L29.4753 17.8629L29.986 17.7234L30.1097 17.6875L30.2318 17.6512L30.7034 17.502C32.6794 16.8455 33.8949 16.0192 33.9935 15.118L34 15L34.9398 8.43677C34.9797 8.29283 35 8.14716 35 8C35 6.73005 33.4849 5.57069 30.9888 4.68878L30.7075 4.59192L30.1793 4.42294L29.6262 4.26187L29.4842 4.2229L29.3407 4.18442L28.7521 4.0358L28.4494 3.96472L28.1411 3.89584L27.5086 3.76483L27.3473 3.73352L27.1846 3.70282L26.5217 3.58582L26.3529 3.55811L26.183 3.53098L25.4917 3.42868L24.7828 3.33655L24.0572 3.25491L23.8733 3.23618L23.6885 3.21811L22.9396 3.15271L22.1765 3.09854L21.5953 3.06543L21.007 3.03897L20.2123 3.01413C19.8121 3.00476 19.4078 3 19 3ZM19 5C24.5228 5 29 5.89543 29 7C29 8.10457 24.5228 9 19 9C13.4772 9 9 8.10457 9 7C9 5.89543 13.4772 5 19 5Z" fill="black"/>
</svg>
