<svg width="30" height="30" viewBox="0 0 30 30" fill="none" xmlns="http://www.w3.org/2000/svg">
<path d="M15.3153 29.4966L15 29.5C11.6765 29.5 8.61424 28.3819 6.16874 26.5013L6.44715 26.7099C6.32714 26.6222 6.20859 26.5326 6.09153 26.4414C6.00025 26.3703 5.91028 26.2984 5.8212 26.2255C5.7611 26.1763 5.70162 26.1268 5.64257 26.0768C5.61213 26.0512 5.58148 26.025 5.55093 25.9987C5.51334 25.9664 5.47567 25.9337 5.43817 25.9008C5.26205 25.7462 5.08956 25.5872 4.92102 25.4242C4.90498 25.4088 4.8886 25.3928 4.87225 25.3769C4.59965 25.1107 4.33773 24.8342 4.08691 24.5478C4.06569 24.5236 4.04431 24.499 4.02301 24.4743C3.96429 24.4063 3.9064 24.3381 3.84914 24.2693C3.8263 24.2417 3.80367 24.2143 3.78114 24.1869C3.71361 24.1046 3.64702 24.0215 3.58133 23.9377L3.55686 23.9062C3.52317 23.863 3.48974 23.8196 3.45654 23.776C3.42474 23.7344 3.39309 23.6924 3.36167 23.6501C3.33251 23.6107 3.30376 23.5717 3.27521 23.5325C3.22006 23.4571 3.1655 23.3808 3.11167 23.3038C3.09796 23.2839 3.08422 23.2641 3.07053 23.2444C2.92661 23.0369 2.7881 22.8253 2.65507 22.61C2.64497 22.5929 2.63471 22.5762 2.62448 22.5595C1.27671 20.3585 0.5 17.77 0.5 15C0.5 12.2795 1.24924 9.73391 2.55262 7.55844C2.56297 7.54194 2.57277 7.52566 2.58259 7.5094C2.921 6.94882 3.29696 6.41277 3.70647 5.90491C3.72113 5.88678 3.73623 5.86815 3.75137 5.84955C3.82157 5.76332 3.89247 5.67827 3.96431 5.59406C3.98946 5.56456 4.01474 5.53518 4.04013 5.50589C4.0965 5.4409 4.15349 5.37631 4.21104 5.31226C4.24374 5.27581 4.27671 5.2395 4.30986 5.20334C4.37919 5.12779 4.4492 5.05301 4.51999 4.979C4.52887 4.96964 4.53849 4.95962 4.54811 4.94962C4.71327 4.778 4.88204 4.6109 5.05482 4.448C5.08489 4.41961 5.11497 4.39151 5.14517 4.36353C5.31155 4.20933 5.48146 4.05905 5.65485 3.91275C5.6956 3.87844 5.7363 3.84448 5.77721 3.81073C5.82694 3.76961 5.87726 3.72865 5.92785 3.68802C5.96192 3.66078 5.99589 3.63375 6.02998 3.60687C8.49803 1.66098 11.6134 0.5 15 0.5C15.131 0.5 15.2615 0.501738 15.3916 0.505188L15 0.5C15.1646 0.5 15.3287 0.502755 15.4924 0.50824C15.5922 0.511539 15.6913 0.515872 15.7902 0.521179C15.828 0.523299 15.8663 0.525498 15.9046 0.527863C16.0235 0.535076 16.1415 0.543806 16.2591 0.553925C16.2947 0.557169 16.3297 0.560295 16.3647 0.563568C16.4713 0.573314 16.5777 0.584437 16.6838 0.59671C16.7036 0.599271 16.7239 0.601687 16.7442 0.604126C17.8641 0.738159 18.9441 0.999872 19.97 1.37415C19.9886 1.38152 20.008 1.38862 20.0273 1.39575C20.8053 1.68283 21.5514 2.03503 22.2596 2.4454C22.2948 2.46624 22.3302 2.48694 22.3656 2.50781C22.5794 2.63375 22.7895 2.76532 22.9959 2.90201C23.0012 2.90585 23.0072 2.90978 23.0131 2.91373L23.2284 3.05927C26.7202 5.47001 29.1027 9.37278 29.4548 13.8464C29.4582 13.8948 29.4617 13.9431 29.4651 13.9915C29.4752 14.1325 29.4829 14.2745 29.4885 14.417C29.4893 14.4437 29.4903 14.4704 29.4912 14.497C29.4971 14.664 29.5 14.8317 29.5 15C29.5 19.9839 26.9855 24.3805 23.1559 26.9905L23.4625 26.7755C23.3346 26.8676 23.2053 26.9575 23.0747 27.0452C22.8667 27.1852 22.6545 27.3199 22.4386 27.4492C22.4036 27.4697 22.3687 27.4905 22.3336 27.511C22.2523 27.5592 22.1703 27.6063 22.0878 27.6526C22.0628 27.6662 22.0378 27.6802 22.0127 27.6941C21.7853 27.8204 21.5542 27.9403 21.3197 28.054C21.2995 28.0634 21.2791 28.0732 21.2587 28.0829C21.0217 28.197 20.7813 28.3042 20.5377 28.405C20.5171 28.413 20.4965 28.4214 20.4758 28.4299C19.4593 28.8453 18.3851 29.1481 17.2686 29.3235C17.2597 29.3245 17.251 29.3259 17.2423 29.3273C16.9739 29.3693 16.7028 29.4037 16.4295 29.4304C16.4101 29.4321 16.3911 29.4339 16.3721 29.4357C16.2663 29.4459 16.1597 29.4547 16.0528 29.4624C16.0181 29.4648 15.9838 29.4671 15.9494 29.4693C15.8211 29.4777 15.6917 29.4844 15.562 29.4893C15.5557 29.4895 15.55 29.4897 15.5443 29.4899L15.3153 29.4966ZM15 3.5C12.3145 3.5 9.84405 4.42049 7.88686 5.96317L9.12516 7.53369C7.65947 8.68897 6.55912 10.2513 5.97512 12.0229L4.07605 11.396C3.70226 12.5296 3.5 13.7412 3.5 15C3.5 16.4046 3.7518 17.7503 4.21273 18.9946L6.08833 18.3006C6.73625 20.0492 7.89261 21.5724 9.39895 22.6742L8.21819 24.2885C10.1196 25.6791 12.4639 26.5 15 26.5C15.1452 26.5 15.2898 26.4973 15.4337 26.492L15.3594 24.4933C17.2478 24.4234 19.0356 23.8013 20.5418 22.7173L21.71 24.3405C23.7999 22.8365 25.3646 20.6484 26.0762 18.1041L24.1502 17.5656C24.3825 16.7347 24.5 15.874 24.4999 14.9648C24.4963 13.9604 24.3376 12.9804 24.0331 12.0479L25.9341 11.4269C25.1229 8.94289 23.4888 6.83095 21.3538 5.41315L20.247 7.07892C18.7038 6.05408 16.8963 5.5 15 5.5V3.5Z" fill="black"/>
</svg>
