<svg width="33" height="33" viewBox="0 0 33 33" fill="none" xmlns="http://www.w3.org/2000/svg">
<path d="M16.5 0C25.6127 0 33 7.3873 33 16.5C33 25.6127 25.6127 33 16.5 33C7.3873 33 0 25.6127 0 16.5C0 7.3873 7.3873 0 16.5 0ZM16.5 4C9.59644 4 4 9.59644 4 16.5C4 23.4036 9.59644 29 16.5 29C23.4036 29 29 23.4036 29 16.5C29 9.59644 23.4036 4 16.5 4ZM16.7169 8C17.2845 8 17.7446 8.83853 17.7446 9.87271C17.7446 9.89773 17.7441 9.92247 17.7436 9.9472C18.0483 9.57422 18.4039 9.3893 18.6752 9.50732C18.9512 9.62739 19.0685 10.0304 19.0127 10.5266C18.999 10.7617 18.9424 11.0199 18.8399 11.2786C18.7804 11.4286 18.7098 11.5673 18.6319 11.6922C22.5954 12.5993 25.4292 15.9082 25.4987 21.6457L25.4995 22H23.038C23.0762 16.9518 20.2335 14.4593 16.5139 14.381C12.5477 14.2974 10.3155 16.962 9.98049 21.6951L9.96169 22H7.5C7.8154 16.0195 10.3207 12.3755 14.7216 11.6591C14.6512 11.5538 14.5214 11.3408 14.4636 11.2169C14.1186 10.4782 14.1677 9.71762 14.5731 9.51788C14.8973 9.35826 15.3511 9.606 15.6964 10.0895C15.6918 10.0184 15.6893 9.94609 15.6893 9.87271C15.6893 8.83853 16.1494 8 16.7169 8ZM14.4692 17.2874C14.7361 17.2874 14.9576 17.5105 14.9992 17.8027L15.0063 17.9025V19.4133C15.0063 19.753 14.7658 20.0284 14.4692 20.0284C14.2021 20.0284 13.9806 19.8053 13.939 19.5131L13.9319 19.4133V17.9025C13.9319 17.5629 14.1725 17.2874 14.4692 17.2874ZM18.7663 17.2874C19.0333 17.2874 19.2548 17.5105 19.2965 17.8027L19.3035 17.9025V19.4133C19.3035 19.753 19.063 20.0284 18.7663 20.0284C18.4994 20.0284 18.2779 19.8053 18.2362 19.5131L18.2292 19.4133V17.9025C18.2292 17.5629 18.4697 17.2874 18.7663 17.2874Z" fill="black"/>
</svg>
